<svg xmlns="http://www.w3.org/2000/svg" viewBox="0 0 95 95"><defs><style>.cls-1{fill:#f05c32;}.cls-2{fill:#fff;}.cls-3{fill:#00adee;}</style></defs><title>Asset 2</title><g id="Layer_2" data-name="Layer 2"><g id="Layer_1-2" data-name="Layer 1"><circle class="cls-1" cx="47.5" cy="47.5" r="47.5"/><path class="cls-2" d="M18.39,28h8.1v2.91h-5v5.28h3.6v2.91H21.5v6h5v3h-8.1Z"/><path class="cls-2" d="M28.89,28h4.42c3.45,0,5,1.8,5,5.54v9c0,3.85-1.43,5.62-4.88,5.62H28.89Zm4.65,17.18c1.17,0,1.63-.74,1.63-2.11v-9.7c0-1.66-.77-2.4-2.48-2.4H32V45.16Z"/><path class="cls-2" d="M40.8,32.63c0-3.14,1.8-5.08,4.88-5.08,2.91,0,4.48,1.74,4.48,5.16v1.86h-3V32.43c0-1.4-.54-2.08-1.6-2.08S44,31,44,32.43V43.67c0,1.4.54,2.11,1.6,2.11s1.6-.71,1.6-2.11V40.53H45.28V38h4.88V48.12H48.68l-.6-1.4a3.14,3.14,0,0,1-3,1.83c-2.77,0-4.28-1.94-4.28-5.59Z"/><path class="cls-2" d="M53,28h8.1v2.91h-5v5.28h3.59v2.91H56.16v6h5v3H53Z"/><path class="cls-2" d="M21.24,72.32H18.13V52.18H22.7c3.37,0,4.85,1.68,4.85,5.82,0,2.4-.51,3.94-2,5l2.28,9.36H24.64l-1.91-8.47H21.24Zm0-11.38h1.23c1.51,0,1.91-.83,1.91-3.06s-.51-2.79-2-2.79H21.24Z"/><path class="cls-2" d="M31.27,52.18l2,8h.2l1.91-8h3.17L34.95,64v8.36H31.84v-8L28.13,52.18Z"/><path class="cls-2" d="M39.86,52.18h4.42c3.45,0,5,1.8,5,5.54v9c0,3.85-1.43,5.62-4.88,5.62H39.86Zm4.65,17.18c1.17,0,1.63-.74,1.63-2.11v-9.7c0-1.66-.77-2.4-2.48-2.4h-.71V69.36Z"/><path class="cls-2" d="M52.14,52.18h8.1v2.91h-5v5.28h3.6v2.91h-3.6v6h5v3h-8.1Z"/><path class="cls-2" d="M65.73,72.32H62.62V52.18h4.56C70.55,52.18,72,53.86,72,58c0,2.4-.51,3.94-2,5l2.28,9.36H69.12l-1.91-8.47H65.73Zm0-11.38H67c1.51,0,1.91-.83,1.91-3.06s-.51-2.79-2-2.79H65.73Z"/><path class="cls-2" d="M76.58,66.76c.12,2,.74,3,2.06,3a1.82,1.82,0,0,0,1.91-1.94c0-1.68-1.14-2.71-2.8-4.37-2.25-2.25-3.85-3.91-3.85-6.56a4.89,4.89,0,0,1,4.82-5.05c2.57,0,4.42,1.85,4.65,5l-3,.43c-.12-1.74-.57-2.51-1.71-2.51A1.66,1.66,0,0,0,77,56.6c0,1.83,1.34,3.05,3.11,4.76,2.14,2.08,3.48,3.6,3.48,6.39a4.75,4.75,0,0,1-4.82,5c-3,0-5-2-5.14-5.56Z"/><path class="cls-3" d="M64.15,33.95a8,8,0,1,0-8-8h8Z"/></g></g></svg>